# xmcd
#
# Track frame offsets: 
#        150
#        8115
#        18220
#        27255
#        37667
#        47960
#        58045
#        70060
#        79232
#        89247
#        101505
#        111670
#        122957
#        132240
#        144110
#        153830
#        164032
#        174705
#
# Disc length: 2483 seconds
#
# Revision: 3
# Processed by: cddbd v1.5.2PL0 Copyright (c) Steve Scherf et al.
# Submitted via: ExactAudioCopy v0.99pb5
#
DISCID=f409b112
DTITLE=Wanda Jackson - Rockin' With Wanda
DYEAR=1960
DGENRE=Country
TTITLE0=Rock Your Baby
TTITLE1=Fujiyama Mama
TTITLE2=You're The One For Me
TTITLE3=Did You Miss Me?
TTITLE4=Cool Love
TTITLE5=Honey Bop
TTITLE6=Hot Dog! That Made Him Mad
TTITLE7=Baby Loves Him
TTITLE8=Mean Mean Man
TTITLE9=You've Turned To A Stranger
TTITLE10=Don'a Wan'a
TTITLE11=I Gotta Know
TTITLE12=(Everytime They Play) Our Song (Bonus Track)
TTITLE13=Sinful Heart (Bonus Track)
TTITLE14=Savin' My Love (Bonus Track)
TTITLE15=A Date With Jerry (Bonus Track)
TTITLE16=Reaching (Bonus Track)
TTITLE17=I'd Rather Have You (Bonus Track)
EXTD=Produced by Ken Nelson\nYEAR: 1960 ID3G: 2
EXTT0=(Jackson)
EXTT1=(Burrows)
EXTT2=(Rowland)
EXTT3=(Lord)
EXTT4=(Countryman/Jackson)
EXTT5=(Axton/Durden/Reeves)
EXTT6=(Barker/Raye)
EXTT7=(Jackson)
EXTT8=(Jackson)
EXTT9=(Rhodes/Franks)
EXTT10=(Bryant)
EXTT11=(Blackman)
EXTT12=(Lane/Thomas]\nBonustrack\nB-side of single "Mean Mean Man" rel
EXTT12=eased 7/28/58
EXTT13=(Jackson]\nBonustrack\nSingle released 10/27/58 B-side: "Rock Y
EXTT13=our Baby"
EXTT14=(Jackson]\nBonustrack\nSingle released 2/5/59 B-side: "You've T
EXTT14=urned To A Stranger
EXTT15=(Walker]\nBonustrack\nB-side of single "You're The One For Me" 
EXTT15=released 5/11/59
EXTT16=(McDonald]\nBonustrack\nSingle released 10/5/59 B-side: I'd Rat
EXTT16=her Have You
EXTT17=(Blackman]\nBonustrack\nB-side of single "Reaching" released 10
EXTT17=/5/59
PLAYORDER=
